<?xml version="1.0" standalone="no"?>
<!DOCTYPE svg PUBLIC "-//W3C//DTD SVG 20010904//EN"
 "http://www.w3.org/TR/2001/REC-SVG-20010904/DTD/svg10.dtd">
<svg version="1.0" xmlns="http://www.w3.org/2000/svg"
 width="1200.000000pt" height="450.000000pt" viewBox="0 0 1200.000000 450.000000"
 preserveAspectRatio="xMidYMid meet">
<metadata>
Created by potrace 1.16, written by Peter Selinger 2001-2019
</metadata>
<g transform="translate(0.000000,450.000000) scale(0.100000,-0.100000)"
fill="#000000" stroke="none">
<path d="M2285 3684 c49 -81 119 -253 149 -364 28 -106 56 -283 56 -356 0 -42
-2 -46 -13 -29 -11 14 -20 16 -43 10 -30 -8 -142 -17 -205 -16 l-35 0 -24 -82
c-25 -87 -87 -249 -136 -355 l-29 -63 -60 6 c-125 14 -324 61 -460 109 -129
44 -215 85 -364 170 -34 18 -49 22 -63 15 -12 -7 -18 -6 -18 1 0 11 -53 5 -75
-8 -35 -22 -55 -12 -90 43 -54 83 -95 167 -88 178 3 5 0 8 -7 5 -35 -11 17
-378 88 -623 73 -250 162 -410 284 -506 81 -65 253 -102 553 -119 342 -19 540
-77 752 -221 40 -27 74 -49 75 -49 2 0 4 51 4 113 3 252 64 436 250 752 87
148 154 285 178 364 58 197 -40 428 -308 725 -112 123 -370 356 -396 356 -5 0
7 -25 25 -56z"/>
<path d="M4800 2601 l0 -919 31 -6 c41 -8 167 -8 208 0 l31 7 0 319 0 320 75
-94 c407 -502 444 -545 476 -552 66 -13 259 -4 259 13 0 3 -88 116 -195 251
-108 135 -227 286 -266 337 l-71 92 68 88 c38 48 96 122 129 164 33 43 106
137 163 209 56 72 100 135 97 140 -7 12 -265 13 -280 2 -6 -4 -110 -137 -230
-296 l-220 -290 -3 567 -2 567 -135 0 -135 0 0 -919z"/>
<path d="M3760 2989 c-30 -4 -88 -16 -127 -25 l-73 -17 0 -53 c0 -30 9 -78 21
-110 18 -48 24 -55 43 -51 226 52 322 59 417 31 106 -32 147 -82 156 -194 l6
-70 -164 0 c-134 0 -178 -4 -238 -20 -97 -27 -163 -62 -223 -118 -112 -104
-151 -248 -113 -409 42 -179 166 -267 415 -295 127 -14 277 -3 468 34 l112 21
0 441 c0 243 -4 468 -9 502 -12 79 -51 161 -102 214 -47 49 -145 97 -233 116
-67 15 -269 16 -356 3z m383 -704 l57 -6 0 -194 c0 -227 19 -204 -171 -212
-101 -4 -136 -2 -175 11 -90 30 -134 92 -134 188 1 109 65 185 177 206 109 22
104 22 246 7z"/>
<path d="M6409 2986 c-155 -34 -299 -147 -369 -290 -62 -126 -83 -240 -77
-411 6 -154 21 -223 70 -323 118 -242 401 -351 772 -297 94 13 131 22 198 47
23 9 27 16 27 48 0 21 -9 68 -21 105 -23 76 -16 74 -139 40 -166 -46 -323 -42
-442 12 -104 46 -168 146 -183 285 l-6 58 433 2 433 3 3 108 c5 213 -53 384
-168 490 -66 61 -156 109 -238 126 -68 14 -221 12 -293 -3z m280 -231 c50 -25
90 -65 118 -119 15 -28 42 -132 43 -163 0 -10 -67 -13 -304 -13 l-303 0 4 28
c9 51 36 127 61 166 58 93 119 124 245 125 74 1 95 -3 136 -24z"/>
<path d="M7929 2986 c-90 -25 -190 -94 -245 -168 l-21 -28 -6 76 c-10 114 -10
114 -122 114 -51 0 -100 -3 -109 -6 -14 -6 -16 -72 -16 -649 l0 -642 31 -7
c40 -8 167 -8 207 0 l31 6 3 397 c4 373 5 399 25 452 52 140 136 212 264 225
105 10 180 -20 216 -89 37 -72 42 -139 43 -568 l0 -416 31 -7 c41 -8 168 -8
208 0 l32 7 -4 476 c-3 389 -7 486 -19 531 -48 171 -128 257 -274 294 -73 19
-210 19 -275 2z"/>
<path d="M9219 2986 c-104 -23 -186 -70 -268 -154 -81 -83 -123 -154 -157
-272 -26 -93 -27 -387 -1 -475 32 -108 77 -186 147 -256 150 -152 378 -207
675 -164 94 13 131 22 198 47 32 12 35 40 13 128 -24 97 -31 103 -91 80 -44
-17 -166 -40 -245 -46 -175 -14 -333 56 -395 176 -18 34 -45 143 -45 183 l0
27 429 0 429 0 7 61 c10 89 -4 240 -29 319 -60 182 -188 304 -362 345 -71 17
-228 17 -305 1z m288 -236 c82 -47 128 -123 142 -232 l7 -58 -304 0 c-260 0
-303 2 -299 14 3 8 9 32 13 53 11 57 51 137 92 179 55 57 102 74 207 74 82 0
95 -3 142 -30z"/>
<path d="M10586 2984 c-198 -48 -338 -186 -409 -402 -19 -59 -22 -89 -22 -257
0 -168 3 -198 22 -257 74 -226 221 -362 436 -403 288 -55 544 58 657 290 107
217 107 520 0 742 -71 146 -210 254 -372 289 -81 17 -236 16 -312 -2z m255
-214 c92 -26 160 -100 201 -218 20 -59 22 -86 22 -227 0 -140 -2 -168 -22
-227 -56 -163 -142 -228 -300 -228 -163 0 -252 84 -298 280 -12 47 -18 114
-18 180 1 227 78 388 208 434 48 17 156 20 207 6z"/>
</g>
</svg>
